<?xml version="1.0" encoding="UTF-8"?>
<svg width="141px" height="40px" viewBox="0 0 141 40" version="1.1" xmlns="http://www.w3.org/2000/svg" xmlns:xlink="http://www.w3.org/1999/xlink">
    <!-- Generator: Sketch 48 (47235) - http://www.bohemiancoding.com/sketch -->
    <title>Group 9</title>
    <desc>Created with Sketch.</desc>
    <defs></defs>
    <g id="Artboard-2" stroke="none" stroke-width="1" fill="none" fill-rule="evenodd" transform="translate(-2398.000000, -1961.000000)">
        <g id="Group-8" transform="translate(2330.000000, 1902.000000)">
            <g id="Group-9" transform="translate(68.000000, 56.000000)">
                <g id="amblem" transform="translate(0.000000, 3.000000)">
                    <rect id="Rectangle-3" stroke-opacity="0.01" stroke="#FFFFFF" x="0.5" y="0.5" width="39" height="39"></rect>
                    <path d="M25.9691203,31.4468375 C26.2955202,31.7793125 26.5548801,32.175975 26.7318401,32.6139125 C26.9088,33.0516875 27,33.5219625 27,33.9967875 C27,34.471775 26.9088,34.94205 26.7318401,35.379825 C26.5548801,35.8177625 26.2955202,36.214425 25.9691203,36.5469 L23.6043209,39 L21.2001135,36.495875 C19.8805298,35.1212875 19.008882,33 19.008882,31.34625 C19.008882,29.6925 19.5243219,27.501175 20.7094736,26 L25.9691203,31.4468375 Z" id="Shape" fill="#333333" fill-rule="nonzero"></path>
                    <path d="M19.0063111,4.62917929 C19.6426889,5.31002857 20,6.23265714 20,7.19471429 C20,8.15677143 19.6426889,9.07956429 19.0063111,9.76036429 L13.0523289,16.1211786 C12.20228,17.0236 11.5285689,18.0975357 11.0703022,19.2805571 C10.6120511,20.4634143 10.3784067,21.7320286 10.3829333,23.0121429 C10.38438,23.6801286 10.4492156,24.3461429 10.5764444,25 L8.22954667,22.4238357 C6.80187333,20.8963071 6,18.8258143 6,16.6672643 C6,14.50855 6.80187333,12.4380571 8.22954667,10.9105286 L16.5751333,2 L19.0063111,4.62917929 Z" id="Shape" fill="#333333" fill-rule="nonzero"></path>
                    <path d="M32.9006769,4.58535 C33.6045077,5.26087278 34,6.17659611 34,7.13137278 C34,8.08614944 33.6045077,9.00187278 32.9006769,9.67739556 L19.8404954,23.2109056 C18.6582492,24.3423889 17.7889785,25.7387389 17.3113246,27.2733222 C16.8336708,28.8079056 16.7626954,30.43255 17.1048292,32 L14.4621723,29.4618556 C13.6816648,28.7151056 13.0624443,27.8281889 12.6399546,26.8518556 C12.2174649,25.8755222 12,24.8289444 12,23.7718944 C12,22.7150056 12.2174649,21.6684278 12.6399546,20.6920944 C13.0624443,19.7157611 13.6816648,18.8287961 14.4621723,18.0820944 L30.1977231,2 L32.9006769,4.58535 Z" id="Shape" fill="#333333" fill-rule="nonzero"></path>
                </g>
                <text id="Memo" font-family="FuturaPT-Heavy, Futura PT" font-size="38" font-weight="600" letter-spacing="-2" fill="#333333">
                    <tspan x="39.508" y="37">Mem</tspan>
                    <tspan x="119.996" y="37">o</tspan>
                </text>
            </g>
        </g>
    </g>
</svg>