<?xml version="1.0" encoding="UTF-8"?>
<svg width="185px" height="79px" viewBox="0 0 185 79" version="1.1" xmlns="http://www.w3.org/2000/svg" xmlns:xlink="http://www.w3.org/1999/xlink">
    <!-- Generator: Sketch 48 (47235) - http://www.bohemiancoding.com/sketch -->
    <title>Logo</title>
    <desc>Created with Sketch.</desc>
    <defs></defs>
    <g id="Artboard-2" stroke="none" stroke-width="1" fill="none" fill-rule="evenodd" transform="translate(-971.000000, -1011.000000)">
        <g id="Logo" transform="translate(966.000000, 1005.000000)">
            <g id="Text" transform="translate(57.000000, 20.000000)" fill="#333333">
                <path d="M29.1911245,64 C28.1727303,64 27.1543361,63.122427 27.0270369,61.9941188 C26.645139,54.9735347 27.4089347,44.63071 33.3920005,22.6913847 C34.4103946,18.5542547 35.4287888,15.0439627 36.1925844,12.2858761 C36.1925844,12.0351409 36.3198837,11.7844058 36.3198837,11.5336707 C33.1374019,14.5424924 27.2816354,21.8138116 23.4626572,27.58072 C22.1896645,29.4612336 20.7893725,31.7178499 18.6252849,30.8402769 C16.7157958,30.0880715 16.9703944,27.8314552 17.0976936,26.5777794 C17.3522922,25.3241037 17.6068907,23.6943252 17.9887886,21.6884441 C18.3706864,19.6825629 18.8798835,17.0498439 19.2617813,14.4171248 C16.2065987,17.1752114 10.4781315,24.070428 5.89535772,30.3388066 C5.25886136,31.0910121 4.11316791,31.4671148 3.22207301,30.9656445 C2.20367884,30.5895418 1.82178102,29.4612336 2.07637956,28.5836606 L7.55024826,7.89801103 C7.8048468,6.76970288 8.95054025,6.01749744 10.223533,6.26823258 C11.3692264,6.6443353 12.0057228,7.77264346 11.7511242,8.90095162 L8.95054025,19.3064602 C9.20513879,18.9303575 9.45973733,18.6796223 9.84163515,18.3035196 C17.0976936,9.65315706 19.7709784,8.39948133 21.935066,9.27705434 C23.4626572,9.9038922 24.0991536,11.5336707 23.7172558,14.1663897 C23.335358,16.7991087 22.8261609,19.3064602 22.4442631,21.4377089 C24.3537521,18.9303575 26.5178398,16.0469033 28.6819274,13.4141843 C34.6649932,6.39360016 37.0836793,5.39065957 39.1204677,6.26823258 C41.9210517,7.52190831 40.9026575,11.4083031 40.3934604,13.4141843 C39.6296648,16.0469033 38.7385699,19.6825629 37.5928764,23.8196928 C33.3920005,39.1145367 30.9733143,54.7227996 31.4825114,61.7433837 C31.4825114,62.8716918 30.5914165,64 29.445723,64 L29.1911245,64 Z" id="m" transform="translate(21.500000, 35.000000) rotate(3.000000) translate(-21.500000, -35.000000) "></path>
                <path d="M62.3447941,17.8882955 C63.352579,18.4023625 63.7304983,19.68753 63.2266058,20.7156639 C60.0772782,27.1415012 55.1643271,31.1255203 50.7552684,31.1255203 C50.1254029,31.1255203 49.6215105,31.1255203 48.9916449,30.9970036 C47.3539946,30.4829366 43.5748014,28.6837022 43.4488283,21.3582477 L43.4488283,21.1012142 C43.4488283,20.8441807 43.4488283,20.7156639 43.5748014,20.5871472 C43.7007745,12.4905922 47.9838601,6.83585543 52.0149995,6.1932717 C54.2825154,5.80772146 56.1721119,7.09288892 57.0539237,9.40619034 C58.9435203,14.8038936 51.0072146,20.3301137 47.6059408,22.3863816 C47.857887,24.9567165 48.6137256,26.6274342 49.9994298,26.8844677 C52.3929188,27.5270515 56.6760044,24.6996831 59.5733858,18.9164295 C60.0772782,17.8882955 61.3370093,17.3742286 62.3447941,17.8882955 Z M52.644865,10.3058076 C51.2591608,10.562841 48.9916449,13.0046592 47.9838601,17.1171951 C51.2591608,14.8038936 53.6526498,12.105042 53.2747305,10.8198745 C53.0227843,10.4343243 52.8968112,10.3058076 52.7708381,10.3058076 L52.644865,10.3058076 Z" id="e" transform="translate(53.448828, 18.625520) rotate(7.000000) translate(-53.448828, -18.625520) "></path>
                <path d="M90.2086131,54.7618934 C89.1902189,54.7618934 88.1718248,53.8822682 88.0445255,52.7513215 C87.6626277,45.7143199 88.4089347,44.721047 94.3920005,22.7304171 C95.4103946,18.5836126 96.4287888,15.0651118 97.1925844,12.3005755 C97.1925844,12.049254 97.3198837,11.7979325 97.3198837,11.546611 C94.1374019,14.5624688 88.2816354,21.8507919 84.4626572,27.631186 C83.1896645,29.5160972 81.7893725,31.7779905 79.6252849,30.8983654 C77.7157958,30.1444009 77.9703944,27.8825075 78.0976936,26.6259001 C78.3522922,25.3692927 78.6068907,23.735703 78.9887886,21.7251312 C79.3706864,19.7145593 79.8798835,17.0756837 80.2617813,14.4368081 C77.2065987,17.2013444 71.4781315,24.1126853 66.8953577,30.3957224 C66.2588614,31.1496868 65.1131679,31.5266691 64.222073,31.0240261 C63.2036788,30.6470439 62.821781,29.5160972 63.0763796,28.636472 L68.5502483,7.90244949 C68.8048468,6.77150281 69.9505402,6.01753835 71.223533,6.26885984 C72.3692264,6.64584207 73.0057228,7.77678875 72.7511242,8.90773543 L69.9505402,19.3375771 C70.2051388,18.9605948 70.4597373,18.7092733 70.8416351,18.3322911 C78.0976936,9.66169988 80.7709784,8.40509246 82.935066,9.28471766 C84.4626572,9.91302137 85.0991536,11.546611 84.7172558,14.1854866 C84.335358,16.8243622 83.8261609,19.3375771 83.4442631,21.4738097 C85.3537521,18.9605948 87.5178398,16.0703977 89.6819274,13.4315222 C95.6649932,6.39452058 98.0836793,5.38923464 100.120468,6.26885984 C102.921052,7.52546726 101.902657,11.4209503 101.39346,13.4315222 C100.629665,16.0703977 99.7385699,19.7145593 98.5928764,23.8613638 C94.3920005,39.1919744 91.9908029,45.4629984 92.5,52.5 C92.5,53.6309467 91.6089051,54.7618934 90.4632116,54.7618934 L90.2086131,54.7618934 Z" id="m" transform="translate(82.500000, 30.380947) rotate(3.000000) translate(-82.500000, -30.380947) "></path>
                <path d="M109.128711,35.3180065 C108.362927,35.3180065 107.852404,35.0625138 107.341881,34.807021 C104.023483,32.8908256 104.534006,25.2260439 105.172159,16.5392914 C105.29979,15.2618278 106.320836,14.4953496 107.597143,14.623096 C108.745819,14.7508423 109.639234,15.9005596 109.383973,17.0502768 C108.87345,25.0982976 109.00108,29.1861811 109.511603,30.7191375 C109.511603,30.5913911 109.639234,30.5913911 109.639234,30.5913911 C112.191848,28.5474493 114.744462,22.5433704 116.020769,16.7947841 C112.447109,16.6670377 110.022126,15.5173205 108.745819,13.3456324 C106.958989,10.024227 108.618188,5.80859704 111.298433,3.38141618 C113.723416,1.20972804 116.403661,0.698742595 118.318121,2.10395257 C120.104951,3.25366982 121.125997,5.68085068 121.253628,9.13000243 C121.253628,10.024227 121.253628,10.9184515 121.125997,11.9404224 C122.785196,11.6849297 124.572026,11.3016906 128.91147,9.64098788 C130.060146,9.25774879 131.336453,10.024227 131.591714,11.1739442 C131.974606,12.3236615 131.336453,13.4733787 130.187777,13.8566178 C125.082549,15.6450669 122.657565,16.1560523 120.615474,16.411545 C119.211536,23.3098485 116.1484,30.9746302 112.319479,33.9127965 C111.043172,34.9347674 110.022126,35.3180065 109.128711,35.3180065 Z M115.765508,5.68085068 C115.382615,5.68085068 114.233939,6.31958249 113.340524,7.72479246 C112.319479,9.13000243 112.064217,10.5352124 112.57474,11.3016906 C113.085263,11.9404224 114.489201,12.4514078 116.786553,12.4514078 C116.914184,11.3016906 116.914184,10.2797197 116.914184,9.38549516 C116.786553,7.08606065 116.27603,5.9363434 115.893138,5.68085068 L115.765508,5.68085068 Z" id="o" transform="translate(118.203029, 18.318006) rotate(6.000000) translate(-118.203029, -18.318006) "></path>
            </g>
            <path d="M43.4836713,8.86887338 C43.5591275,8.79388219 43.1721404,15.0110953 39.6306813,22.56066 C50.2185317,20.806403 58.5967634,19.263546 64.7653764,17.9320891 C65.0441406,17.8719196 51.4714001,29.2162875 34.0518358,34.00658 C33.3817338,34.4154413 52.9560895,35.2715394 52.6282049,35.4952706 C51.4052566,36.3297461 42.7230744,43.4277898 27.5124016,48.298274 C26.9192525,48.4882014 37.9444353,50.9853055 37.8710992,51.0308589 C37.837992,51.0514237 26.7560388,57.2155616 19.4635554,63.8676821 C19.3305932,63.9889687 19.2866402,40.0318275 8.59487352,27.8548676 C8.33700329,27.5528672 18.6822726,25.7881313 39.6306813,22.56066 C18.2547524,26.2627208 7.90948313,28.0274567 8.59487352,27.8548676 C13.8830635,26.5232414 28.081246,24.1763779 43.4836713,8.86887338 Z" id="Icon" stroke="#333333" stroke-width="4" stroke-linecap="round" transform="translate(36.666264, 36.368171) rotate(-23.000000) translate(-36.666264, -36.368171) "></path>
        </g>
    </g>
</svg>