<?xml version="1.0" encoding="UTF-8"?>
<svg width="159px" height="42px" viewBox="0 0 159 42" version="1.1" xmlns="http://www.w3.org/2000/svg" xmlns:xlink="http://www.w3.org/1999/xlink">
    <!-- Generator: Sketch 44.1 (41455) - http://www.bohemiancoding.com/sketch -->
    <title>memo_logo_left</title>
    <desc>Created with Sketch.</desc>
    <defs></defs>
    <g id="Page-1" stroke="none" stroke-width="1" fill="none" fill-rule="evenodd">
        <g id="memo_logo_left" transform="translate(-14.000000, -8.000000)">
            <g id="text" transform="translate(49.000000, 19.000000)" fill="#3A3A3A">
                <path d="M1,22.632 L4.52,22.632 L4.52,22.632 C5.07228475,22.632 5.52,22.1842847 5.52,21.632 L5.52,10.58 C5.52,7.636 6.946,4.968 10.58,4.968 C13.248,4.968 14.352,6.762 14.352,9.476 L14.352,21.632 L14.352,21.632 C14.352,22.1842847 14.7997153,22.632 15.352,22.632 L18.872,22.632 L18.872,22.632 C19.4242847,22.632 19.872,22.1842847 19.872,21.632 L19.872,10.672 C19.872,7.82 21.16,4.968 24.61,4.968 C27.876,4.968 28.704,7.36 28.704,10.12 L28.704,21.632 L28.704,21.632 C28.704,22.1842847 29.1517153,22.632 29.704,22.632 L33.224,22.632 L33.224,22.632 C33.7762847,22.632 34.224,22.1842847 34.224,21.632 L34.224,9.476 C34.224,4.186 32.154,0 26.266,0 C22.954,0 20.608,1.288 18.998,4.094 C17.848,1.334 15.502,0 12.098,0 C8.418,0 6.302,1.932 5.336,4.002 L5.26995581,1.52534281 L5.26995581,1.52534281 C5.25551023,0.983633636 4.81221292,0.552 4.27031117,0.552 L1,0.552 L1,0.552 C0.44771525,0.552 -2.8967998e-16,0.99971525 -2.22044605e-16,1.552 L0,21.632 L0,21.632 C-1.89447421e-15,22.1842847 0.44771525,22.632 1,22.632 Z M58.4575554,13.524 L42.6215554,13.524 C42.9895554,16.79 45.4735554,18.768 48.5555554,18.768 C51.3155554,18.768 52.8888958,17.811657 54.2688958,16.109657 L54.2688958,16.109657 L54.2688958,16.109657 C54.4175786,15.9384587 54.6730084,15.9106098 54.8550901,16.0457457 L58.1028858,18.4561673 L58.1028858,18.4561673 C58.2817448,18.5889113 58.3191283,18.8415155 58.1863842,19.0203744 C58.1657285,19.048206 58.1415712,19.0732587 58.1145097,19.0949134 L58.1145097,19.0949134 C55.5385097,22.2689134 52.6035554,23.184 49.1075554,23.184 C42.4375554,23.184 37.1015554,18.538 37.1015554,11.592 C37.1015554,4.646 42.4375554,0 49.1075554,0 C55.2715554,0 59.4575554,4.324 59.4575554,12.006 L59.4575554,12.524 L59.4575554,12.524 C59.4575554,13.0762847 59.0098402,13.524 58.4575554,13.524 Z M42.6215554,9.384 L53.9375554,9.384 C53.8915554,6.164 51.7755554,4.14 48.3255554,4.14 C45.0595554,4.14 43.0355554,6.21 42.6215554,9.384 Z M63.3351109,22.632 L66.8551109,22.632 L66.8551109,22.632 C67.4073956,22.632 67.8551109,22.1842847 67.8551109,21.632 L67.8551109,10.58 C67.8551109,7.636 69.2811109,4.968 72.9151109,4.968 C75.5831109,4.968 76.6871109,6.762 76.6871109,9.476 L76.6871109,21.632 L76.6871109,21.632 C76.6871109,22.1842847 77.1348261,22.632 77.6871109,22.632 L81.2071109,22.632 L81.2071109,22.632 C81.7593956,22.632 82.2071109,22.1842847 82.2071109,21.632 L82.2071109,10.672 C82.2071109,7.82 83.4951109,4.968 86.9451109,4.968 C90.2111109,4.968 91.0391109,7.36 91.0391109,10.12 L91.0391109,21.632 L91.0391109,21.632 C91.0391109,22.1842847 91.4868261,22.632 92.0391109,22.632 L95.5591109,22.632 L95.5591109,22.632 C96.1113956,22.632 96.5591109,22.1842847 96.5591109,21.632 L96.5591109,9.476 C96.5591109,4.186 94.4891109,0 88.6011109,0 C85.2891109,0 82.9431109,1.288 81.3331109,4.094 C80.1831109,1.334 77.8371109,0 74.4331109,0 C70.7531109,0 68.6371109,1.932 67.6711109,4.002 L67.6050667,1.52534281 L67.6050667,1.52534281 C67.5906211,0.983633636 67.1473238,0.552 66.6054221,0.552 L63.3351109,0.552 L63.3351109,0.552 C62.7828261,0.552 62.3351109,0.99971525 62.3351109,1.552 L62.3351109,21.632 L62.3351109,21.632 C62.3351109,22.1842847 62.7828261,22.632 63.3351109,22.632 Z M99.4366663,11.592 C99.4366663,4.646 104.772666,0 111.442666,0 C118.112666,0 123.448666,4.646 123.448666,11.592 C123.448666,18.538 118.112666,23.184 111.442666,23.184 C104.772666,23.184 99.4366663,18.538 99.4366663,11.592 Z M104.956666,11.592 C104.956666,15.042 107.394666,18.216 111.442666,18.216 C115.490666,18.216 117.928666,15.042 117.928666,11.592 C117.928666,8.142 115.490666,4.968 111.442666,4.968 C107.394666,4.968 104.956666,8.142 104.956666,11.592 Z" id="memo"></path>
            </g>
            <g id="icon" transform="translate(26.614920, 26.599226) rotate(32.000000) translate(-26.614920, -26.599226) translate(8.114920, 7.599226)">
                <path d="M2.34479103e-13,13 L20.9334109,13.1789577 L20.9334109,13.1789577 C23.3255846,13.1994082 25.541663,14.440076 26.8095589,16.4687094 L35.9101274,31.0296189 L35.9101274,31.0296189 C37.0809687,32.9029651 36.511476,35.3707666 34.6381299,36.5416079 C33.9925438,36.9450992 33.2452178,37.1559766 32.4839398,37.1494685 L15,37 L2.34479103e-13,13 Z" id="Rectangle" fill="#3A3A3A"></path>
                <path d="M2.34479103e-13,13 L19.7344971,13 L14.7074751,4.95647582 L14.7074751,4.95647582 C13.536664,3.08311079 11.0688717,2.51357829 9.19550664,3.68438938 C8.92129429,3.85576594 8.66887452,4.05976087 8.4437741,4.29190768 L2.34479103e-13,13 Z" id="Rectangle" fill="#D2D5D9"></path>
            </g>
        </g>
    </g>
</svg>